<svg xmlns="http://www.w3.org/2000/svg" xmlns:xlink="http://www.w3.org/1999/xlink" width="500" zoomAndPan="magnify" viewBox="0 0 375 374.999991" height="500" preserveAspectRatio="xMidYMid meet" version="1.0"><defs><g/><clipPath id="1e188b78c2"><path d="M 24.210938 24.210938 L 350.789062 24.210938 L 350.789062 350.789062 L 24.210938 350.789062 Z M 24.210938 24.210938 " clip-rule="nonzero"/></clipPath><clipPath id="0600febfa8"><path d="M 187.5 24.210938 C 97.316406 24.210938 24.210938 97.316406 24.210938 187.5 C 24.210938 277.683594 97.316406 350.789062 187.5 350.789062 C 277.683594 350.789062 350.789062 277.683594 350.789062 187.5 C 350.789062 97.316406 277.683594 24.210938 187.5 24.210938 Z M 187.5 24.210938 " clip-rule="nonzero"/></clipPath><clipPath id="489b215bbe"><path d="M 0.210938 0.210938 L 326.789062 0.210938 L 326.789062 326.789062 L 0.210938 326.789062 Z M 0.210938 0.210938 " clip-rule="nonzero"/></clipPath><clipPath id="b559607d21"><path d="M 163.5 0.210938 C 73.316406 0.210938 0.210938 73.316406 0.210938 163.5 C 0.210938 253.683594 73.316406 326.789062 163.5 326.789062 C 253.683594 326.789062 326.789062 253.683594 326.789062 163.5 C 326.789062 73.316406 253.683594 0.210938 163.5 0.210938 Z M 163.5 0.210938 " clip-rule="nonzero"/></clipPath><clipPath id="1d116b5d09"><rect x="0" width="327" y="0" height="327"/></clipPath><clipPath id="bbcfd7513c"><path d="M 30.148438 30.148438 L 344.84375 30.148438 L 344.84375 344.84375 L 30.148438 344.84375 Z M 30.148438 30.148438 " clip-rule="nonzero"/></clipPath><clipPath id="146aeca628"><path d="M 187.496094 30.148438 C 100.59375 30.148438 30.148438 100.59375 30.148438 187.496094 C 30.148438 274.394531 100.59375 344.84375 187.496094 344.84375 C 274.394531 344.84375 344.84375 274.394531 344.84375 187.496094 C 344.84375 100.59375 274.394531 30.148438 187.496094 30.148438 Z M 187.496094 30.148438 " clip-rule="nonzero"/></clipPath><clipPath id="d1cf1226c5"><path d="M 85.871094 85.871094 L 289.128906 85.871094 L 289.128906 289.128906 L 85.871094 289.128906 Z M 85.871094 85.871094 " clip-rule="nonzero"/></clipPath><clipPath id="25fc2c660b"><path d="M 187.5 85.871094 C 131.371094 85.871094 85.871094 131.371094 85.871094 187.5 C 85.871094 243.628906 131.371094 289.128906 187.5 289.128906 C 243.628906 289.128906 289.128906 243.628906 289.128906 187.5 C 289.128906 131.371094 243.628906 85.871094 187.5 85.871094 Z M 187.5 85.871094 " clip-rule="nonzero"/></clipPath><clipPath id="831f31f4af"><path d="M 0.871094 0.871094 L 204.128906 0.871094 L 204.128906 204.128906 L 0.871094 204.128906 Z M 0.871094 0.871094 " clip-rule="nonzero"/></clipPath><clipPath id="bc666820b7"><path d="M 102.5 0.871094 C 46.371094 0.871094 0.871094 46.371094 0.871094 102.5 C 0.871094 158.628906 46.371094 204.128906 102.5 204.128906 C 158.628906 204.128906 204.128906 158.628906 204.128906 102.5 C 204.128906 46.371094 158.628906 0.871094 102.5 0.871094 Z M 102.5 0.871094 " clip-rule="nonzero"/></clipPath><clipPath id="aa509bf62a"><rect x="0" width="205" y="0" height="205"/></clipPath><clipPath id="0e7b270bbd"><path d="M 172 240 L 200 240 L 200 271 L 172 271 Z M 172 240 " clip-rule="nonzero"/></clipPath><clipPath id="c5e98a5907"><path d="M 235.035156 128.355469 L 289.28125 165.949219 L 203.839844 289.234375 L 149.59375 251.640625 Z M 235.035156 128.355469 " clip-rule="nonzero"/></clipPath><clipPath id="06661eee6f"><path d="M 235.035156 128.355469 L 289.28125 165.949219 L 203.839844 289.234375 L 149.59375 251.640625 Z M 235.035156 128.355469 " clip-rule="nonzero"/></clipPath><clipPath id="87443708fc"><path d="M 235.035156 128.355469 L 289.28125 165.949219 L 203.839844 289.234375 L 149.59375 251.640625 Z M 235.035156 128.355469 " clip-rule="nonzero"/></clipPath><clipPath id="774f735e75"><path d="M 170 142 L 269 142 L 269 261 L 170 261 Z M 170 142 " clip-rule="nonzero"/></clipPath><clipPath id="addecad8c1"><path d="M 235.035156 128.355469 L 289.28125 165.949219 L 203.839844 289.234375 L 149.59375 251.640625 Z M 235.035156 128.355469 " clip-rule="nonzero"/></clipPath><clipPath id="c87bddf172"><path d="M 235.035156 128.355469 L 289.28125 165.949219 L 203.839844 289.234375 L 149.59375 251.640625 Z M 235.035156 128.355469 " clip-rule="nonzero"/></clipPath><clipPath id="bedcb5c970"><path d="M 235.035156 128.355469 L 289.28125 165.949219 L 203.839844 289.234375 L 149.59375 251.640625 Z M 235.035156 128.355469 " clip-rule="nonzero"/></clipPath><clipPath id="f9b39da6b4"><path d="M 189 160 L 261 160 L 261 241 L 189 241 Z M 189 160 " clip-rule="nonzero"/></clipPath><clipPath id="504fb42188"><path d="M 235.035156 128.355469 L 289.28125 165.949219 L 203.839844 289.234375 L 149.59375 251.640625 Z M 235.035156 128.355469 " clip-rule="nonzero"/></clipPath><clipPath id="ff41bb3a56"><path d="M 235.035156 128.355469 L 289.28125 165.949219 L 203.839844 289.234375 L 149.59375 251.640625 Z M 235.035156 128.355469 " clip-rule="nonzero"/></clipPath><clipPath id="3266206800"><path d="M 235.035156 128.355469 L 289.28125 165.949219 L 203.839844 289.234375 L 149.59375 251.640625 Z M 235.035156 128.355469 " clip-rule="nonzero"/></clipPath></defs><g clip-path="url(#1e188b78c2)"><g clip-path="url(#0600febfa8)"><g transform="matrix(1, 0, 0, 1, 24, 24)"><g clip-path="url(#1d116b5d09)"><g clip-path="url(#489b215bbe)"><g clip-path="url(#b559607d21)"><path fill="#78b227" d="M 0.210938 0.210938 L 326.789062 0.210938 L 326.789062 326.789062 L 0.210938 326.789062 Z M 0.210938 0.210938 " fill-opacity="1" fill-rule="nonzero"/></g></g></g></g></g></g><g clip-path="url(#bbcfd7513c)"><g clip-path="url(#146aeca628)"><path stroke-linecap="butt" transform="matrix(0.75, 0, 0, 0.75, 30.147184, 30.14718)" fill="none" stroke-linejoin="miter" d="M 209.798546 0.00167675 C 93.928754 0.00167675 0.00167075 93.92876 0.00167075 209.798552 C 0.00167075 325.663136 93.928754 419.595427 209.798546 419.595427 C 325.66313 419.595427 419.595421 325.663136 419.595421 209.798552 C 419.595421 93.92876 325.66313 0.00167675 209.798546 0.00167675 Z M 209.798546 0.00167675 " stroke="#121212" stroke-width="10" stroke-opacity="1" stroke-miterlimit="4"/></g></g><g clip-path="url(#d1cf1226c5)"><g clip-path="url(#25fc2c660b)"><g transform="matrix(1, 0, 0, 1, 85, 85)"><g clip-path="url(#aa509bf62a)"><g clip-path="url(#831f31f4af)"><g clip-path="url(#bc666820b7)"><path fill="#ffffff" d="M 0.871094 0.871094 L 204.128906 0.871094 L 204.128906 204.128906 L 0.871094 204.128906 Z M 0.871094 0.871094 " fill-opacity="1" fill-rule="nonzero"/></g></g></g></g></g></g><path fill="#ffc47d" d="M 188.144531 163.515625 C 198.652344 189.40625 223.53125 250.59375 223.53125 250.59375 C 227.066406 258.59375 219.144531 255.101562 219.144531 255.101562 C 219.144531 255.101562 159.140625 230.808594 131.773438 219.738281 Z M 188.144531 163.515625 " fill-opacity="1" fill-rule="nonzero"/><path fill="#f7454a" d="M 179.566406 149.472656 C 162.480469 134.09375 136.128906 134.617188 119.695312 151.007812 C 103.851562 166.8125 102.804688 191.757812 116.488281 208.800781 C 114.390625 214.320312 115.570312 220.785156 120.023438 225.226562 C 126.078125 231.265625 135.929688 231.265625 141.988281 225.226562 C 142.25 224.964844 142.511719 224.671875 142.742188 224.410156 C 145.882812 220.785156 147.0625 216.050781 146.277344 211.609375 C 150.726562 212.230469 155.441406 210.859375 158.878906 207.429688 C 162.445312 203.871094 163.820312 198.941406 163.003906 194.335938 C 168.828125 195.90625 175.34375 194.433594 179.925781 189.863281 C 184.773438 185.03125 186.144531 178.109375 184.148438 172.035156 C 186.964844 172.230469 189.84375 171.449219 192.203125 169.652344 C 192.628906 169.324219 193.054688 168.96875 193.445312 168.574219 C 198.128906 163.90625 198.128906 156.363281 193.445312 151.695312 C 189.714844 147.90625 184.050781 147.1875 179.566406 149.472656 Z M 179.566406 149.472656 " fill-opacity="1" fill-rule="nonzero"/><path fill="#e6373c" d="M 189.78125 164.886719 C 189.386719 165.277344 188.960938 165.636719 188.535156 165.964844 C 186.179688 167.757812 183.296875 168.542969 180.484375 168.347656 C 182.480469 174.417969 181.105469 181.34375 176.261719 186.175781 C 171.679688 190.746094 165.164062 192.246094 159.335938 190.648438 C 160.15625 195.25 158.8125 200.183594 155.210938 203.742188 C 151.773438 207.167969 147.09375 208.539062 142.609375 207.921875 C 143.394531 212.359375 142.214844 217.09375 139.074219 220.71875 C 138.84375 221.011719 138.582031 221.273438 138.320312 221.535156 C 132.886719 226.957031 124.410156 227.511719 118.351562 223.199219 C 118.84375 223.917969 119.402344 224.574219 120.054688 225.226562 C 126.109375 231.265625 135.964844 231.265625 142.019531 225.226562 C 142.28125 224.964844 142.542969 224.671875 142.773438 224.410156 C 145.914062 220.785156 147.09375 216.050781 146.308594 211.609375 C 150.761719 212.230469 155.472656 210.859375 158.910156 207.429688 C 162.480469 203.871094 163.855469 198.941406 163.035156 194.335938 C 168.863281 195.90625 175.375 194.433594 179.960938 189.863281 C 184.804688 185.03125 186.179688 178.109375 184.183594 172.035156 C 186.996094 172.230469 189.878906 171.449219 192.234375 169.652344 C 192.660156 169.324219 193.085938 168.96875 193.480469 168.574219 C 198.160156 163.90625 198.160156 156.363281 193.480469 151.695312 C 192.855469 151.074219 192.167969 150.519531 191.449219 150.0625 C 194.363281 154.632812 193.839844 160.835938 189.78125 164.886719 Z M 189.78125 164.886719 " fill-opacity="1" fill-rule="nonzero"/><path fill="#f4ae60" d="M 184.117188 171.972656 C 186.113281 178.042969 184.738281 184.964844 179.894531 189.796875 C 175.3125 194.371094 168.796875 195.871094 162.96875 194.273438 C 163.789062 198.875 162.445312 203.804688 158.878906 207.363281 C 155.441406 210.792969 150.761719 212.164062 146.277344 211.542969 C 147.0625 215.953125 145.882812 220.589844 142.839844 224.214844 C 145.425781 225.257812 148.109375 226.335938 150.890625 227.476562 C 152.460938 224.441406 152.984375 220.980469 152.398438 217.683594 C 156.847656 218.304688 161.5625 216.933594 165 213.503906 C 168.566406 209.945312 169.941406 205.015625 169.125 200.410156 C 174.953125 201.976562 181.464844 200.507812 186.046875 195.9375 C 190.894531 191.105469 192.269531 184.183594 190.269531 178.109375 C 191.515625 178.207031 192.726562 178.078125 193.9375 177.78125 C 192.890625 175.203125 191.875 172.753906 190.957031 170.4375 C 188.832031 171.613281 186.472656 172.132812 184.117188 171.972656 Z M 184.117188 171.972656 " fill-opacity="1" fill-rule="nonzero"/><path fill="#c4304a" d="M 120.613281 172.230469 C 121.625 173.246094 123.230469 173.246094 124.246094 172.230469 C 125.261719 171.21875 125.261719 169.621094 124.246094 168.609375 C 123.230469 167.59375 121.625 167.59375 120.613281 168.609375 C 119.628906 169.585938 119.628906 171.21875 120.613281 172.230469 Z M 120.613281 172.230469 " fill-opacity="1" fill-rule="nonzero"/><path fill="#c4304a" d="M 138.453125 197.179688 C 139.46875 198.191406 141.070312 198.191406 142.085938 197.179688 C 143.101562 196.164062 143.101562 194.566406 142.085938 193.554688 C 141.070312 192.542969 139.46875 192.542969 138.453125 193.554688 C 137.4375 194.566406 137.4375 196.199219 138.453125 197.179688 Z M 138.453125 197.179688 " fill-opacity="1" fill-rule="nonzero"/><path fill="#c4304a" d="M 148.730469 174.777344 C 149.746094 175.792969 151.347656 175.792969 152.363281 174.777344 C 153.378906 173.765625 153.378906 172.167969 152.363281 171.15625 C 151.347656 170.140625 149.746094 170.140625 148.730469 171.15625 C 147.75 172.167969 147.75 173.765625 148.730469 174.777344 Z M 148.730469 174.777344 " fill-opacity="1" fill-rule="nonzero"/><path fill="#c4304a" d="M 162.019531 161.847656 C 163.035156 162.859375 164.640625 162.859375 165.65625 161.847656 C 166.667969 160.835938 166.667969 159.238281 165.65625 158.222656 C 164.640625 157.210938 163.035156 157.210938 162.019531 158.222656 C 161.007812 159.238281 161.007812 160.871094 162.019531 161.847656 Z M 162.019531 161.847656 " fill-opacity="1" fill-rule="nonzero"/><path fill="#c4304a" d="M 118.058594 194.632812 C 119.074219 195.644531 120.675781 195.644531 121.691406 194.632812 C 122.707031 193.617188 122.707031 192.019531 121.691406 191.007812 C 120.675781 189.996094 119.074219 189.996094 118.058594 191.007812 C 117.042969 191.984375 117.042969 193.617188 118.058594 194.632812 Z M 118.058594 194.632812 " fill-opacity="1" fill-rule="nonzero"/><path fill="#fa7a7e" d="M 127.878906 159.957031 C 127.058594 159.957031 126.242188 159.660156 125.585938 159.074219 C 124.148438 157.800781 124.050781 155.613281 125.324219 154.207031 C 133.148438 145.457031 141.234375 142.683594 153.214844 144.542969 C 155.113281 144.835938 156.390625 146.601562 156.097656 148.496094 C 155.800781 150.386719 154.035156 151.660156 152.136719 151.367188 C 142.445312 149.832031 136.78125 151.792969 130.496094 158.8125 C 129.777344 159.5625 128.828125 159.957031 127.878906 159.957031 Z M 127.878906 159.957031 " fill-opacity="1" fill-rule="nonzero"/><g clip-path="url(#0e7b270bbd)"><g clip-path="url(#c5e98a5907)"><g clip-path="url(#06661eee6f)"><g clip-path="url(#87443708fc)"><path fill="#fed18d" d="M 194.640625 245.457031 L 199.167969 248.722656 L 185.535156 267.644531 C 183.214844 270.902344 178.660156 271.644531 175.445312 269.347656 C 172.230469 267.054688 171.546875 262.492188 173.871094 259.234375 L 187.503906 240.3125 L 194.640625 245.457031 " fill-opacity="1" fill-rule="nonzero"/></g></g></g></g><g clip-path="url(#774f735e75)"><g clip-path="url(#addecad8c1)"><g clip-path="url(#c87bddf172)"><g clip-path="url(#bedcb5c970)"><path fill="#ffaa00" d="M 267.09375 188.421875 C 265.960938 185.5 264.214844 182.699219 263.59375 179.734375 C 262.566406 174.839844 265.632812 169.808594 262.90625 165.070312 C 258.433594 157.308594 272.570312 155.269531 262.75 148.152344 C 248.460938 137.789062 228.429688 141.167969 217.984375 155.675781 L 177.328125 212.089844 L 171.542969 220.15625 C 169.238281 223.296875 169.925781 227.667969 173.054688 229.902344 L 194.640625 245.453125 L 199.140625 248.765625 L 213.585938 259.175781 C 216.6875 261.457031 221.046875 260.710938 223.308594 257.542969 L 228.914062 249.738281 C 235.707031 240.308594 242.503906 230.875 249.296875 221.445312 C 253.933594 215.011719 258.570312 208.578125 263.207031 202.144531 C 264.472656 200.382812 267.183594 197.824219 267.773438 195.714844 C 268.5 193.113281 267.988281 190.730469 267.09375 188.421875 " fill-opacity="1" fill-rule="nonzero"/></g></g></g></g><g clip-path="url(#f9b39da6b4)"><g clip-path="url(#504fb42188)"><g clip-path="url(#ff41bb3a56)"><g clip-path="url(#3266206800)"><path fill="#ff9400" d="M 224.03125 238.191406 L 259.261719 187.359375 C 260.617188 185.402344 260.148438 182.734375 258.222656 181.398438 C 256.292969 180.0625 253.632812 180.5625 252.277344 182.515625 L 217.046875 233.351562 C 215.691406 235.304688 216.160156 237.972656 218.089844 239.308594 C 220.015625 240.644531 222.675781 240.144531 224.03125 238.191406 Z M 210.527344 228.832031 L 253.066406 167.460938 C 254.417969 165.507812 253.953125 162.839844 252.023438 161.5 C 250.097656 160.164062 247.433594 160.667969 246.082031 162.621094 L 203.546875 223.992188 C 202.191406 225.945312 202.65625 228.613281 204.585938 229.949219 C 206.511719 231.285156 209.175781 230.785156 210.527344 228.832031 Z M 191.082031 220.589844 C 189.15625 219.257812 188.6875 216.585938 190.042969 214.632812 L 225.273438 163.800781 C 226.625 161.847656 229.289062 161.347656 231.21875 162.683594 C 233.144531 164.019531 233.613281 166.6875 232.257812 168.644531 L 197.027344 219.476562 C 195.671875 221.429688 193.011719 221.929688 191.082031 220.589844 " fill-opacity="1" fill-rule="nonzero"/></g></g></g></g><g fill="#000000" fill-opacity="1"><g transform="translate(69.980096, 192.834979)"><g><path d="M -2.078125 -1.671875 C -2.085938 -2.253906 -2.144531 -2.695312 -2.25 -3 C -2.363281 -3.300781 -2.613281 -3.539062 -3 -3.71875 C -3.382812 -3.90625 -3.992188 -4.015625 -4.828125 -4.046875 L -17.203125 -4.375 C -18.410156 -4.414062 -19.378906 -4.488281 -20.109375 -4.59375 L -20.078125 -2.15625 L -22.546875 -2.234375 L -22.359375 -11.40625 C -22.296875 -14.3125 -21.660156 -16.570312 -20.453125 -18.1875 C -19.242188 -19.8125 -17.441406 -20.585938 -15.046875 -20.515625 C -13.828125 -20.484375 -12.664062 -20.101562 -11.5625 -19.375 C -10.457031 -18.65625 -9.566406 -17.597656 -8.890625 -16.203125 C -8.222656 -14.816406 -7.882812 -13.128906 -7.875 -11.140625 L -7.875 -9.875 L -7.9375 -8.8125 L -5.09375 -8.734375 C -3.863281 -8.703125 -2.882812 -8.632812 -2.15625 -8.53125 C -2.195312 -9.21875 -2.203125 -10.128906 -2.171875 -11.265625 L 0.3125 -11.203125 L 0.046875 -1.609375 Z M -10.21875 -10.328125 C -10.175781 -12.066406 -10.578125 -13.351562 -11.421875 -14.1875 C -12.265625 -15.019531 -13.523438 -15.457031 -15.203125 -15.5 C -18.390625 -15.59375 -20.023438 -14.195312 -20.109375 -11.3125 C -20.128906 -10.5625 -19.984375 -10.007812 -19.671875 -9.65625 C -19.359375 -9.300781 -18.675781 -9.109375 -17.625 -9.078125 L -10.359375 -8.890625 C -10.285156 -9.328125 -10.238281 -9.804688 -10.21875 -10.328125 Z M -10.21875 -10.328125 "/></g></g></g><g fill="#000000" fill-opacity="1"><g transform="translate(70.631127, 171.160134)"><g><path d="M -2.15625 -0.609375 C -2.039062 -1.160156 -2.097656 -1.648438 -2.328125 -2.078125 C -2.554688 -2.515625 -2.875 -2.890625 -3.28125 -3.203125 C -3.6875 -3.515625 -4.285156 -3.921875 -5.078125 -4.421875 L -20.625 -14.265625 L -20.140625 -16.46875 L -1.46875 -19.4375 C -1.007812 -19.507812 -0.453125 -19.566406 0.203125 -19.609375 C 0.867188 -19.660156 1.421875 -19.671875 1.859375 -19.640625 C 1.941406 -20.335938 2.039062 -20.945312 2.15625 -21.46875 L 4.578125 -20.9375 L 2.71875 -12.453125 L 0.640625 -12.90625 C 0.867188 -13.925781 0.5625 -14.53125 -0.28125 -14.71875 C -0.695312 -14.8125 -1.226562 -14.800781 -1.875 -14.6875 L -3.75 -14.4375 L -5.125 -7.578125 L -3.75 -6.734375 C -3.59375 -6.640625 -3.242188 -6.414062 -2.703125 -6.0625 C -2.171875 -5.707031 -1.738281 -5.410156 -1.40625 -5.171875 C -1.320312 -5.847656 -1.191406 -6.601562 -1.015625 -7.4375 L 1.5 -6.890625 L 0.03125 -0.125 Z M -6.171875 -14.140625 L -10.421875 -13.5625 C -12.285156 -13.320312 -13.8125 -13.234375 -15 -13.296875 L -15.015625 -13.265625 C -13.578125 -12.597656 -12.269531 -11.90625 -11.09375 -11.1875 L -7.328125 -8.875 Z M -6.171875 -14.140625 "/></g></g></g><g fill="#000000" fill-opacity="1"><g transform="translate(75.66679, 149.073481)"><g><path d="M -1.328125 -2.3125 C -1.117188 -2.863281 -1.007812 -3.300781 -1 -3.625 C -1 -3.945312 -1.144531 -4.257812 -1.4375 -4.5625 C -1.726562 -4.875 -2.257812 -5.191406 -3.03125 -5.515625 L -14.4375 -10.328125 C -15.550781 -10.796875 -16.425781 -11.210938 -17.0625 -11.578125 L -17.921875 -9.3125 L -20.203125 -10.265625 L -16.59375 -18.8125 L -14.625 -17.984375 C -14.832031 -17.441406 -14.941406 -17.007812 -14.953125 -16.6875 C -14.960938 -16.363281 -14.820312 -16.046875 -14.53125 -15.734375 C -14.238281 -15.429688 -13.707031 -15.117188 -12.9375 -14.796875 L -1.53125 -9.984375 C -0.457031 -9.523438 0.394531 -9.113281 1.03125 -8.75 L 2.703125 -12.75 C 3.179688 -13.945312 3.144531 -15.046875 2.59375 -16.046875 C 2.050781 -17.046875 0.988281 -17.878906 -0.59375 -18.546875 L 0.25 -20.53125 L 7.3125 -17.34375 L 0.625 -1.484375 Z M -1.328125 -2.3125 "/></g></g></g><g fill="#000000" fill-opacity="1"><g transform="translate(83.762034, 130.068815)"><g><path d="M -0.90625 -2.5 C -0.601562 -3 -0.421875 -3.410156 -0.359375 -3.734375 C -0.296875 -4.054688 -0.378906 -4.394531 -0.609375 -4.75 C -0.847656 -5.101562 -1.316406 -5.503906 -2.015625 -5.953125 L -12.375 -12.71875 C -13.394531 -13.375 -14.179688 -13.9375 -14.734375 -14.40625 L -15.984375 -12.328125 L -18.0625 -13.6875 L -9.234375 -27.234375 L -3.890625 -23.96875 L -5.046875 -22.1875 C -6.390625 -23.050781 -7.523438 -23.332031 -8.453125 -23.03125 C -9.390625 -22.726562 -10.132812 -22.113281 -10.6875 -21.1875 L -11.296875 -20.1875 C -11.546875 -19.738281 -11.707031 -19.359375 -11.78125 -19.046875 C -11.851562 -18.734375 -11.757812 -18.394531 -11.5 -18.03125 C -11.238281 -17.675781 -10.78125 -17.28125 -10.125 -16.84375 L -6.0625 -14.203125 L -4 -17.375 C -4.3125 -17.550781 -5.117188 -18.019531 -6.421875 -18.78125 L -5.046875 -20.875 L 1.53125 -16.59375 L 0.359375 -14.796875 C -0.367188 -15.265625 -0.976562 -15.5 -1.46875 -15.5 C -1.957031 -15.5 -2.363281 -15.347656 -2.6875 -15.046875 C -3.019531 -14.753906 -3.375 -14.304688 -3.75 -13.703125 L -4.1875 -12.984375 L 0.25 -10.09375 C 1.226562 -9.457031 2 -8.90625 2.5625 -8.4375 L 4.921875 -12.0625 C 5.515625 -12.976562 5.707031 -13.957031 5.5 -15 C 5.300781 -16.050781 4.523438 -17.015625 3.171875 -17.890625 L 4.328125 -19.65625 L 10.1875 -15.640625 L 0.875 -1.34375 Z M -0.90625 -2.5 "/></g></g></g><g fill="#000000" fill-opacity="1"><g transform="translate(95.405889, 112.299094)"><g><path d="M 2.484375 -5.671875 C 2.859375 -6.109375 3.101562 -6.476562 3.21875 -6.78125 C 3.34375 -7.082031 3.320312 -7.429688 3.15625 -7.828125 C 3 -8.222656 2.617188 -8.707031 2.015625 -9.28125 L -9.1875 -19.953125 L -10.21875 -18.875 C -11.070312 -17.9375 -11.429688 -16.925781 -11.296875 -15.84375 C -11.171875 -14.757812 -10.492188 -13.632812 -9.265625 -12.46875 L -10.734375 -10.9375 L -15.90625 -16.078125 L -2.40625 -30.25 L 3 -25.359375 L 1.53125 -23.828125 C 0.300781 -24.992188 -0.863281 -25.625 -1.96875 -25.71875 C -3.070312 -25.820312 -4.050781 -25.410156 -4.90625 -24.484375 L -5.96875 -23.359375 L 5 -12.921875 C 6.039062 -11.921875 6.707031 -11.21875 7 -10.8125 C 7.445312 -11.375 8.019531 -12.023438 8.71875 -12.765625 L 10.515625 -11.046875 L 4.015625 -4.203125 Z M 2.484375 -5.671875 "/></g></g></g><g fill="#000000" fill-opacity="1"><g transform="translate(110.734252, 96.413996)"><g><path d="M 0.046875 -2.65625 C 0.515625 -3.019531 0.835938 -3.335938 1.015625 -3.609375 C 1.191406 -3.878906 1.234375 -4.222656 1.140625 -4.640625 C 1.054688 -5.054688 0.769531 -5.601562 0.28125 -6.28125 L -6.96875 -16.3125 C -7.675781 -17.289062 -8.210938 -18.101562 -8.578125 -18.75 L -10.484375 -17.25 L -11.9375 -19.265625 L 1.171875 -28.734375 L 4.96875 -23.765625 L 3.25 -22.515625 C 2.320312 -23.804688 1.367188 -24.472656 0.390625 -24.515625 C -0.585938 -24.566406 -1.503906 -24.265625 -2.359375 -23.609375 L -3.265625 -22.890625 C -3.671875 -22.566406 -3.960938 -22.269531 -4.140625 -22 C -4.316406 -21.726562 -4.347656 -21.378906 -4.234375 -20.953125 C -4.128906 -20.523438 -3.84375 -19.992188 -3.375 -19.359375 L -0.546875 -15.421875 L 2.515625 -17.640625 C 2.285156 -17.929688 1.703125 -18.664062 0.765625 -19.84375 L 2.78125 -21.296875 L 7.375 -14.9375 L 5.640625 -13.6875 C 5.140625 -14.382812 4.660156 -14.816406 4.203125 -14.984375 C 3.742188 -15.160156 3.304688 -15.171875 2.890625 -15.015625 C 2.484375 -14.867188 2 -14.578125 1.4375 -14.140625 L 0.765625 -13.625 L 3.859375 -9.328125 C 4.546875 -8.378906 5.066406 -7.582031 5.421875 -6.9375 L 8.9375 -9.484375 C 9.820312 -10.117188 10.351562 -10.960938 10.53125 -12.015625 C 10.71875 -13.066406 10.34375 -14.25 9.40625 -15.5625 L 11.109375 -16.796875 L 15.140625 -10.9375 L 1.296875 -0.9375 Z M 0.046875 -2.65625 "/></g></g></g><g fill="#000000" fill-opacity="1"><g transform="translate(127.921127, 83.997899)"><g><path d="M 0.546875 -2.609375 C 1.078125 -2.867188 1.453125 -3.117188 1.671875 -3.359375 C 1.898438 -3.597656 2.003906 -3.929688 1.984375 -4.359375 C 1.972656 -4.785156 1.789062 -5.375 1.4375 -6.125 L -3.796875 -17.34375 C -4.304688 -18.4375 -4.675781 -19.328125 -4.90625 -20.015625 L -7.0625 -18.921875 L -8.125 -21.171875 L 0.15625 -25.09375 C 2.832031 -26.363281 5.117188 -26.863281 7.015625 -26.59375 C 8.910156 -26.320312 10.363281 -25.113281 11.375 -22.96875 C 12 -21.625 12.125 -20.222656 11.75 -18.765625 C 11.375 -17.316406 10.453125 -15.957031 8.984375 -14.6875 L 8.984375 -14.65625 C 9.398438 -14.664062 9.875 -14.585938 10.40625 -14.421875 C 10.9375 -14.265625 11.421875 -14.035156 11.859375 -13.734375 L 14.203125 -12.34375 C 15.335938 -11.613281 16.21875 -11.15625 16.84375 -10.96875 C 17.476562 -10.78125 18.113281 -10.828125 18.75 -11.109375 L 19.65625 -9.1875 L 14.828125 -6.9375 C 14.390625 -7.019531 13.898438 -7.203125 13.359375 -7.484375 C 12.828125 -7.765625 12.179688 -8.164062 11.421875 -8.6875 L 7.609375 -11.171875 C 6.753906 -11.734375 6.078125 -12.109375 5.578125 -12.296875 L 4.0625 -11.59375 L 5.53125 -8.46875 C 6.050781 -7.351562 6.425781 -6.453125 6.65625 -5.765625 C 7.257812 -6.097656 8.078125 -6.507812 9.109375 -7 L 10.15625 -4.75 L 1.453125 -0.6875 Z M 4.484375 -14.359375 C 6.085938 -15.109375 7.078125 -16.003906 7.453125 -17.046875 C 7.828125 -18.085938 7.660156 -19.367188 6.953125 -20.890625 C 6.191406 -22.515625 5.273438 -23.394531 4.203125 -23.53125 C 3.128906 -23.664062 2.09375 -23.5 1.09375 -23.03125 C 0.414062 -22.71875 -0.0078125 -22.34375 -0.1875 -21.90625 C -0.363281 -21.46875 -0.226562 -20.769531 0.21875 -19.8125 L 3.015625 -13.8125 C 3.640625 -14.007812 4.128906 -14.191406 4.484375 -14.359375 Z M 4.484375 -14.359375 "/></g></g></g><g fill="#000000" fill-opacity="1"><g transform="translate(149.395284, 74.50006)"><g><path d="M 0.96875 -2.484375 C 1.519531 -2.671875 1.925781 -2.863281 2.1875 -3.0625 C 2.445312 -3.257812 2.601562 -3.566406 2.65625 -3.984375 C 2.707031 -4.410156 2.617188 -5.023438 2.390625 -5.828125 L -1.015625 -17.71875 C -1.347656 -18.882812 -1.570312 -19.828125 -1.6875 -20.546875 L -3.984375 -19.78125 L -4.671875 -22.171875 L 4.25 -24.734375 L 4.84375 -22.671875 C 4.28125 -22.492188 3.867188 -22.304688 3.609375 -22.109375 C 3.359375 -21.910156 3.203125 -21.597656 3.140625 -21.171875 C 3.085938 -20.753906 3.175781 -20.144531 3.40625 -19.34375 L 6.8125 -7.453125 C 7.144531 -6.285156 7.367188 -5.34375 7.484375 -4.625 C 8.128906 -4.875 8.894531 -5.128906 9.78125 -5.390625 L 10.46875 -3 L 1.546875 -0.4375 Z M 0.96875 -2.484375 "/></g></g></g><g fill="#000000" fill-opacity="1"><g transform="translate(162.696464, 70.439623)"><g><path d="M -0.140625 -2.234375 C 0.421875 -2.304688 0.863281 -2.519531 1.1875 -2.875 C 1.519531 -3.238281 1.765625 -3.664062 1.921875 -4.15625 C 2.085938 -4.644531 2.273438 -5.34375 2.484375 -6.25 L 6.625 -24.171875 L 8.859375 -24.453125 L 17.84375 -7.828125 C 18.070312 -7.421875 18.316406 -6.910156 18.578125 -6.296875 C 18.847656 -5.691406 19.035156 -5.179688 19.140625 -4.765625 C 19.835938 -4.910156 20.453125 -5.015625 20.984375 -5.078125 L 21.28125 -2.609375 L 12.65625 -1.546875 L 12.390625 -3.65625 C 13.421875 -3.789062 13.882812 -4.285156 13.78125 -5.140625 C 13.726562 -5.566406 13.546875 -6.066406 13.234375 -6.640625 L 12.390625 -8.328125 L 5.4375 -7.34375 L 5.109375 -5.78125 C 5.066406 -5.59375 4.96875 -5.1875 4.8125 -4.5625 C 4.664062 -3.9375 4.535156 -3.429688 4.421875 -3.046875 C 5.085938 -3.191406 5.84375 -3.316406 6.6875 -3.421875 L 7 -0.859375 L 0.125 -0.015625 Z M 11.296875 -10.5 L 9.34375 -14.328125 C 8.5 -16.003906 7.910156 -17.414062 7.578125 -18.5625 L 7.546875 -18.5625 C 7.398438 -16.976562 7.179688 -15.519531 6.890625 -14.1875 L 5.953125 -9.84375 Z M 11.296875 -10.5 "/></g></g></g><g fill="#000000" fill-opacity="1"><g transform="translate(185.67795, 68.190926)"><g/></g></g><g fill="#000000" fill-opacity="1"><g transform="translate(195.757499, 68.031719)"><g><path d="M 6.828125 -1.046875 C 7.390625 -0.984375 7.828125 -0.984375 8.140625 -1.046875 C 8.460938 -1.117188 8.738281 -1.332031 8.96875 -1.6875 C 9.207031 -2.050781 9.390625 -2.644531 9.515625 -3.46875 L 9.96875 -6.25 L 5.59375 -16.46875 C 5.363281 -17.039062 5.171875 -17.632812 5.015625 -18.25 C 4.859375 -18.875 4.8125 -19.359375 4.875 -19.703125 L 3.296875 -19.859375 L 3.6875 -22.3125 L 13.09375 -20.796875 L 12.75 -18.671875 C 12.082031 -18.835938 11.519531 -18.84375 11.0625 -18.6875 C 10.613281 -18.539062 10.351562 -18.242188 10.28125 -17.796875 C 10.226562 -17.421875 10.296875 -17 10.484375 -16.53125 L 12.265625 -12.171875 C 12.304688 -12.054688 12.476562 -11.601562 12.78125 -10.8125 C 13.082031 -10.019531 13.285156 -9.347656 13.390625 -8.796875 L 13.421875 -8.78125 C 13.503906 -8.925781 13.601562 -9.082031 13.71875 -9.25 C 13.832031 -9.425781 13.96875 -9.617188 14.125 -9.828125 C 14.8125 -10.804688 15.242188 -11.425781 15.421875 -11.6875 L 17.609375 -14.671875 C 18.484375 -15.960938 19.203125 -16.835938 19.765625 -17.296875 L 19.765625 -17.328125 L 18.09375 -17.515625 L 17.296875 -17.609375 L 17.6875 -20.0625 L 24.734375 -18.921875 L 24.390625 -16.796875 C 23.640625 -16.816406 22.957031 -16.617188 22.34375 -16.203125 C 21.726562 -15.796875 21.019531 -15.054688 20.21875 -13.984375 L 14.78125 -6.6875 L 14.203125 -3.078125 C 14.003906 -1.878906 13.804688 -0.929688 13.609375 -0.234375 C 14.316406 -0.179688 15.171875 -0.0703125 16.171875 0.09375 L 15.78125 2.546875 L 6.484375 1.046875 Z M 6.828125 -1.046875 "/></g></g></g><g fill="#000000" fill-opacity="1"><g transform="translate(218.427935, 72.254752)"><g/></g></g><g fill="#000000" fill-opacity="1"><g transform="translate(228.085386, 74.698546)"><g><path d="M 13.265625 -7.859375 C 13.078125 -8.722656 12.898438 -9.710938 12.734375 -10.828125 L 12.703125 -10.84375 L 8.359375 -1.8125 C 7.828125 -0.71875 7.363281 0.132812 6.96875 0.75 C 7.613281 0.988281 8.351562 1.3125 9.1875 1.71875 L 8.09375 3.953125 L 1.46875 0.71875 L 2.40625 -1.1875 C 2.945312 -0.945312 3.378906 -0.816406 3.703125 -0.796875 C 4.023438 -0.773438 4.347656 -0.898438 4.671875 -1.171875 C 4.992188 -1.441406 5.335938 -1.953125 5.703125 -2.703125 L 11.078125 -13.859375 C 11.710938 -15.148438 12.175781 -16.003906 12.46875 -16.421875 L 10.21875 -17.40625 L 11.3125 -19.640625 L 15.875 -17.40625 L 19.28125 -1.859375 C 19.570312 -0.398438 19.800781 0.84375 19.96875 1.875 L 20 1.890625 L 24.484375 -7.3125 C 25.097656 -8.5625 25.550781 -9.414062 25.84375 -9.875 L 23.625 -10.84375 L 24.71875 -13.078125 L 31.328125 -9.859375 L 30.390625 -7.9375 C 29.867188 -8.164062 29.445312 -8.289062 29.125 -8.3125 C 28.8125 -8.34375 28.488281 -8.222656 28.15625 -7.953125 C 27.832031 -7.679688 27.488281 -7.171875 27.125 -6.421875 L 19.21875 9.75 L 16.75 8.546875 Z M 13.265625 -7.859375 "/></g></g></g><g fill="#000000" fill-opacity="1"><g transform="translate(251.182434, 86.350104)"><g><path d="M 2.578125 -0.703125 C 3.046875 -0.367188 3.4375 -0.15625 3.75 -0.0625 C 4.0625 0.0195312 4.40625 -0.0351562 4.78125 -0.234375 C 5.15625 -0.441406 5.59375 -0.878906 6.09375 -1.546875 L 13.625 -11.375 C 14.351562 -12.332031 14.976562 -13.070312 15.5 -13.59375 L 13.515625 -14.984375 L 15.03125 -16.96875 L 27.859375 -7.140625 L 24.1875 -2.046875 L 22.5 -3.34375 C 23.46875 -4.613281 23.832031 -5.722656 23.59375 -6.671875 C 23.363281 -7.617188 22.816406 -8.40625 21.953125 -9.03125 L 20.984375 -9.71875 C 20.566406 -10 20.203125 -10.1875 19.890625 -10.28125 C 19.578125 -10.382812 19.234375 -10.316406 18.859375 -10.078125 C 18.484375 -9.847656 18.054688 -9.421875 17.578125 -8.796875 L 14.625 -4.953125 L 17.625 -2.65625 C 17.832031 -2.957031 18.363281 -3.726562 19.21875 -4.96875 L 21.203125 -3.4375 L 16.4375 2.796875 L 14.734375 1.484375 C 15.253906 0.796875 15.53125 0.210938 15.5625 -0.265625 C 15.601562 -0.753906 15.488281 -1.175781 15.21875 -1.53125 C 14.945312 -1.882812 14.523438 -2.273438 13.953125 -2.703125 L 13.265625 -3.171875 L 10.046875 1.03125 C 9.335938 1.957031 8.722656 2.679688 8.203125 3.203125 L 11.640625 5.828125 C 12.503906 6.492188 13.46875 6.765625 14.53125 6.640625 C 15.59375 6.515625 16.617188 5.8125 17.609375 4.53125 L 19.28125 5.8125 L 14.828125 11.359375 L 1.28125 0.984375 Z M 2.578125 -0.703125 "/></g></g></g><g fill="#000000" fill-opacity="1"><g transform="translate(268.011104, 99.205987)"><g><path d="M 14.75 -9.21875 C 15.414062 -10.601562 15.984375 -11.503906 16.453125 -11.921875 L 15.21875 -13.15625 L 17.078125 -14.796875 L 23.40625 -7.6875 L 21.8125 -6.28125 C 20.90625 -7.375 20.09375 -7.601562 19.375 -6.96875 C 19.125 -6.75 18.898438 -6.4375 18.703125 -6.03125 L 15.234375 1.046875 C 14.941406 1.628906 14.554688 2.40625 14.078125 3.375 C 13.898438 3.6875 13.535156 4.390625 12.984375 5.484375 L 13.015625 5.5 L 17.375 3.71875 L 24.046875 1.078125 C 25.460938 0.441406 26.492188 0.117188 27.140625 0.109375 L 27.15625 0.09375 L 25.96875 -1.109375 L 25.390625 -1.703125 L 27.25 -3.34375 L 32.078125 2.09375 L 30.484375 3.5 C 29.953125 2.96875 29.3125 2.675781 28.5625 2.625 C 27.8125 2.570312 26.832031 2.773438 25.625 3.234375 L 8.484375 9.84375 L 6.71875 7.84375 Z M 14.75 -9.21875 "/></g></g></g><g fill="#000000" fill-opacity="1"><g transform="translate(283.683662, 117.202498)"><g><path d="M 2.640625 0.3125 C 2.960938 0.800781 3.253906 1.144531 3.515625 1.34375 C 3.773438 1.539062 4.113281 1.613281 4.53125 1.5625 C 4.945312 1.507812 5.515625 1.269531 6.234375 0.84375 L 16.875 -5.46875 C 17.914062 -6.082031 18.769531 -6.535156 19.4375 -6.828125 L 18.125 -8.859375 L 20.265625 -10.125 L 28.5 3.765625 L 23.203125 7.125 L 22.125 5.296875 C 23.5 4.484375 24.253906 3.585938 24.390625 2.609375 C 24.523438 1.640625 24.304688 0.703125 23.734375 -0.203125 L 23.09375 -1.1875 C 22.8125 -1.613281 22.539062 -1.925781 22.28125 -2.125 C 22.03125 -2.320312 21.6875 -2.382812 21.25 -2.3125 C 20.820312 -2.25 20.265625 -2.015625 19.578125 -1.609375 L 15.40625 0.859375 L 17.34375 4.109375 C 17.65625 3.910156 18.429688 3.394531 19.671875 2.5625 L 20.953125 4.703125 L 14.203125 8.703125 L 13.109375 6.859375 C 13.859375 6.421875 14.335938 5.984375 14.546875 5.546875 C 14.753906 5.109375 14.800781 4.671875 14.6875 4.234375 C 14.570312 3.804688 14.328125 3.296875 13.953125 2.703125 L 13.484375 2 L 8.9375 4.6875 C 7.925781 5.28125 7.085938 5.726562 6.421875 6.03125 L 8.625 9.765625 C 9.1875 10.703125 9.984375 11.3125 11.015625 11.59375 C 12.046875 11.875 13.253906 11.601562 14.640625 10.78125 L 15.703125 12.578125 L 9.515625 16.0625 L 0.8125 1.390625 Z M 2.640625 0.3125 "/></g></g></g><g fill="#000000" fill-opacity="1"><g transform="translate(294.48089, 135.451593)"><g><path d="M 2.546875 0.796875 C 2.765625 1.335938 2.976562 1.726562 3.1875 1.96875 C 3.40625 2.207031 3.726562 2.34375 4.15625 2.375 C 4.582031 2.40625 5.1875 2.28125 5.96875 2 L 17.609375 -2.203125 C 18.742188 -2.609375 19.671875 -2.894531 20.390625 -3.0625 L 19.484375 -5.3125 L 21.8125 -6.15625 L 24.984375 2.453125 C 26.015625 5.222656 26.304688 7.539062 25.859375 9.40625 C 25.410156 11.269531 24.066406 12.609375 21.828125 13.421875 C 20.441406 13.921875 19.039062 13.914062 17.625 13.40625 C 16.21875 12.894531 14.945312 11.847656 13.8125 10.265625 L 13.78125 10.265625 C 13.757812 10.679688 13.640625 11.148438 13.421875 11.671875 C 13.210938 12.191406 12.941406 12.65625 12.609375 13.0625 L 11 15.265625 C 10.175781 16.335938 9.640625 17.175781 9.390625 17.78125 C 9.148438 18.382812 9.140625 19.023438 9.359375 19.703125 L 7.359375 20.421875 L 5.5625 15.40625 C 5.6875 14.976562 5.910156 14.507812 6.234375 14 C 6.566406 13.488281 7.019531 12.875 7.59375 12.15625 L 10.453125 8.59375 C 11.078125 7.789062 11.507812 7.148438 11.75 6.671875 L 11.1875 5.09375 L 7.9375 6.265625 C 6.78125 6.679688 5.84375 6.976562 5.125 7.15625 C 5.414062 7.78125 5.753906 8.625 6.140625 9.6875 L 3.796875 10.53125 L 0.546875 1.515625 Z M 13.890625 5.765625 C 14.492188 7.429688 15.296875 8.492188 16.296875 8.953125 C 17.304688 9.421875 18.597656 9.375 20.171875 8.8125 C 21.859375 8.195312 22.816406 7.363281 23.046875 6.3125 C 23.273438 5.269531 23.207031 4.226562 22.84375 3.1875 C 22.582031 2.476562 22.242188 2.015625 21.828125 1.796875 C 21.410156 1.585938 20.707031 1.660156 19.71875 2.015625 L 13.484375 4.265625 C 13.628906 4.910156 13.765625 5.410156 13.890625 5.765625 Z M 13.890625 5.765625 "/></g></g></g><g fill="#000000" fill-opacity="1"><g transform="translate(301.992138, 157.69584)"><g><path d="M 2.390625 1.1875 C 2.523438 1.75 2.675781 2.164062 2.84375 2.4375 C 3.007812 2.71875 3.300781 2.90625 3.71875 3 C 4.144531 3.101562 4.765625 3.078125 5.578125 2.921875 L 17.75 0.609375 C 18.9375 0.390625 19.890625 0.25 20.609375 0.1875 L 20.0625 -2.171875 L 22.515625 -2.640625 L 24.25 6.484375 L 22.140625 6.890625 C 22.015625 6.316406 21.863281 5.890625 21.6875 5.609375 C 21.519531 5.335938 21.226562 5.148438 20.8125 5.046875 C 20.40625 4.953125 19.789062 4.984375 18.96875 5.140625 L 6.8125 7.453125 C 5.625 7.671875 4.660156 7.804688 3.921875 7.859375 C 4.109375 8.523438 4.289062 9.316406 4.46875 10.234375 L 2.03125 10.703125 L 0.296875 1.578125 Z M 2.390625 1.1875 "/></g></g></g><g fill="#000000" fill-opacity="1"><g transform="translate(304.825677, 171.311991)"><g><path d="M 2.234375 0.0625 C 2.253906 0.625 2.429688 1.085938 2.765625 1.453125 C 3.097656 1.816406 3.5 2.097656 3.96875 2.296875 C 4.4375 2.503906 5.113281 2.753906 6 3.046875 L 23.46875 8.8125 L 23.53125 11.0625 L 6.171875 18.484375 C 5.742188 18.660156 5.210938 18.851562 4.578125 19.0625 C 3.953125 19.28125 3.425781 19.421875 3 19.484375 C 3.082031 20.191406 3.132812 20.8125 3.15625 21.34375 L 0.671875 21.421875 L 0.390625 12.75 L 2.515625 12.6875 C 2.546875 13.726562 2.992188 14.234375 3.859375 14.203125 C 4.285156 14.191406 4.800781 14.054688 5.40625 13.796875 L 7.15625 13.109375 L 6.828125 6.09375 L 5.296875 5.625 C 5.109375 5.5625 4.707031 5.425781 4.09375 5.21875 C 3.488281 5.007812 3 4.828125 2.625 4.671875 C 2.71875 5.359375 2.773438 6.125 2.796875 6.96875 L 0.21875 7.046875 L 0 0.125 Z M 9.4375 12.21875 L 13.421875 10.609375 C 15.171875 9.929688 16.625 9.472656 17.78125 9.234375 L 17.78125 9.203125 C 16.226562 8.910156 14.800781 8.5625 13.5 8.15625 L 9.265625 6.828125 Z M 9.4375 12.21875 "/></g></g></g><g fill="#000000" fill-opacity="1"><g transform="translate(90.941615, 287.978565)"><g><path d="M 3.21875 -0.8125 C 3.789062 -0.375 4.269531 -0.0976562 4.65625 0.015625 C 5.039062 0.140625 5.460938 0.0859375 5.921875 -0.140625 C 6.390625 -0.378906 6.953125 -0.90625 7.609375 -1.71875 L 17.21875 -13.640625 C 18.164062 -14.804688 18.960938 -15.710938 19.609375 -16.359375 L 17.203125 -18.15625 L 19.140625 -20.546875 L 28.03125 -13.46875 C 30.894531 -11.195312 32.6875 -8.929688 33.40625 -6.671875 C 34.125 -4.410156 33.5625 -2.132812 31.71875 0.15625 C 30.570312 1.582031 29.085938 2.476562 27.265625 2.84375 C 25.453125 3.207031 23.4375 2.925781 21.21875 2 L 21.1875 2.03125 C 21.4375 2.476562 21.613281 3.035156 21.71875 3.703125 C 21.820312 4.378906 21.832031 5.046875 21.75 5.703125 L 21.453125 9.078125 C 21.273438 10.753906 21.253906 11.984375 21.390625 12.765625 C 21.523438 13.554688 21.921875 14.238281 22.578125 14.8125 L 20.921875 16.875 L 15.78125 12.734375 C 15.625 12.191406 15.554688 11.539062 15.578125 10.78125 C 15.609375 10.03125 15.707031 9.085938 15.875 7.953125 L 16.59375 2.375 C 16.738281 1.132812 16.785156 0.179688 16.734375 -0.484375 L 15.109375 -1.796875 L 12.421875 1.53125 C 11.460938 2.71875 10.660156 3.632812 10.015625 4.28125 C 10.734375 4.757812 11.640625 5.4375 12.734375 6.3125 L 10.796875 8.703125 L 1.5625 1.25 Z M 18.421875 -2.828125 C 20.117188 -1.460938 21.648438 -0.847656 23.015625 -0.984375 C 24.390625 -1.128906 25.726562 -2.007812 27.03125 -3.625 C 28.425781 -5.351562 28.90625 -6.851562 28.46875 -8.125 C 28.039062 -9.40625 27.296875 -10.472656 26.234375 -11.328125 C 25.515625 -11.910156 24.859375 -12.179688 24.265625 -12.140625 C 23.679688 -12.097656 22.984375 -11.566406 22.171875 -10.546875 L 17.015625 -4.171875 C 17.578125 -3.578125 18.046875 -3.128906 18.421875 -2.828125 Z M 18.421875 -2.828125 "/></g></g></g><g fill="#000000" fill-opacity="1"><g transform="translate(116.375257, 307.720431)"><g><path d="M 1.328125 -2.4375 C 1.953125 -2.132812 2.5625 -2.054688 3.15625 -2.203125 C 3.75 -2.359375 4.289062 -2.640625 4.78125 -3.046875 C 5.28125 -3.453125 5.941406 -4.0625 6.765625 -4.875 L 23.015625 -20.8125 L 25.546875 -19.609375 L 23.84375 3.71875 C 23.800781 4.289062 23.71875 4.984375 23.59375 5.796875 C 23.476562 6.617188 23.320312 7.28125 23.125 7.78125 C 23.96875 8.082031 24.691406 8.378906 25.296875 8.671875 L 23.96875 11.453125 L 14.25 6.8125 L 15.390625 4.4375 C 16.546875 4.988281 17.351562 4.78125 17.8125 3.8125 C 18.039062 3.332031 18.1875 2.695312 18.25 1.90625 L 18.484375 -0.4375 L 10.5625 -4.046875 L 9.171875 -2.625 C 9.023438 -2.457031 8.660156 -2.097656 8.078125 -1.546875 C 7.503906 -0.992188 7.019531 -0.5625 6.625 -0.25 C 7.425781 0.0390625 8.296875 0.414062 9.234375 0.875 L 7.859375 3.765625 L 0.140625 0.0625 Z M 18.796875 -3.4375 L 19.296875 -8.75 C 19.546875 -11.050781 19.875 -12.910156 20.28125 -14.328125 L 20.234375 -14.359375 C 19.023438 -12.796875 17.828125 -11.421875 16.640625 -10.234375 L 12.765625 -6.3125 Z M 18.796875 -3.4375 "/></g></g></g><g fill="#000000" fill-opacity="1"><g transform="translate(145.511081, 321.716742)"><g><path d="M 12.875 -10.78125 C 12.632812 -11.769531 12.382812 -13.132812 12.125 -14.875 C 11.863281 -16.625 11.695312 -18.382812 11.625 -20.15625 L 11.578125 -20.15625 C 11.253906 -17.75 10.925781 -15.5625 10.59375 -13.59375 L 10.375 -12.25 L 9.125 -5.125 C 8.851562 -3.488281 8.585938 -2.3125 8.328125 -1.59375 C 9.222656 -1.53125 10.234375 -1.40625 11.359375 -1.21875 L 10.84375 1.8125 L 1.84375 0.3125 L 2.28125 -2.296875 C 2.988281 -2.210938 3.539062 -2.207031 3.9375 -2.28125 C 4.332031 -2.363281 4.675781 -2.625 4.96875 -3.0625 C 5.257812 -3.5 5.492188 -4.234375 5.671875 -5.265625 L 8.4375 -20.328125 C 8.820312 -22.242188 9.070312 -23.421875 9.1875 -23.859375 L 6.21875 -24.234375 L 6.71875 -27.265625 L 15.421875 -25.796875 L 18.828125 -9.53125 C 19.046875 -8.4375 19.273438 -7.234375 19.515625 -5.921875 C 19.753906 -4.617188 19.914062 -3.625 20 -2.9375 L 20.046875 -2.9375 C 20.191406 -3.164062 20.613281 -3.929688 21.3125 -5.234375 C 21.863281 -6.242188 22.347656 -7.109375 22.765625 -7.828125 L 31.609375 -23.078125 L 40.71875 -21.5625 L 40.28125 -18.96875 C 39.570312 -19.050781 39.003906 -19.050781 38.578125 -18.96875 C 38.160156 -18.894531 37.804688 -18.632812 37.515625 -18.1875 C 37.234375 -17.75 37.019531 -17.019531 36.875 -16 L 34.921875 -0.796875 C 34.785156 0.566406 34.535156 1.75 34.171875 2.75 C 35.066406 2.8125 36.078125 2.9375 37.203125 3.125 L 36.6875 6.15625 L 25.71875 4.3125 L 26.15625 1.703125 C 26.863281 1.785156 27.421875 1.789062 27.828125 1.71875 C 28.234375 1.644531 28.578125 1.382812 28.859375 0.9375 C 29.148438 0.5 29.375 -0.234375 29.53125 -1.265625 L 30.609375 -9.65625 L 30.796875 -11.1875 C 31.085938 -13.75 31.304688 -15.535156 31.453125 -16.546875 L 31.40625 -16.546875 L 19.703125 3.71875 L 16.03125 3.109375 Z M 12.875 -10.78125 "/></g></g></g><g fill="#000000" fill-opacity="1"><g transform="translate(188.716208, 327.022696)"><g><path d="M 1.828125 -2.78125 C 2.535156 -2.851562 3.070312 -2.972656 3.4375 -3.140625 C 3.800781 -3.316406 4.070312 -3.648438 4.25 -4.140625 C 4.425781 -4.628906 4.484375 -5.394531 4.421875 -6.4375 L 3.390625 -21.71875 C 3.285156 -23.21875 3.253906 -24.421875 3.296875 -25.328125 L 0.328125 -25 L 0.109375 -28.078125 L 11.5625 -28.84375 L 11.75 -26.203125 C 11.03125 -26.128906 10.488281 -26.003906 10.125 -25.828125 C 9.757812 -25.660156 9.484375 -25.332031 9.296875 -24.84375 C 9.117188 -24.351562 9.066406 -23.585938 9.140625 -22.546875 L 10.171875 -7.265625 C 10.265625 -5.765625 10.289062 -4.5625 10.25 -3.65625 C 11.101562 -3.800781 12.101562 -3.910156 13.25 -3.984375 L 13.453125 -0.90625 L 2 -0.140625 Z M 1.828125 -2.78125 "/></g></g></g><g fill="#000000" fill-opacity="1"><g transform="translate(208.27561, 325.877588)"><g><path d="M 1.265625 -3.0625 C 1.960938 -3.269531 2.472656 -3.492188 2.796875 -3.734375 C 3.117188 -3.972656 3.320312 -4.347656 3.40625 -4.859375 C 3.5 -5.378906 3.410156 -6.140625 3.140625 -7.140625 L -0.703125 -21.96875 C -1.078125 -23.414062 -1.328125 -24.585938 -1.453125 -25.484375 L -4.328125 -24.625 L -5.109375 -27.59375 L 5.875 -30.53125 C 9.394531 -31.476562 12.28125 -31.566406 14.53125 -30.796875 C 16.78125 -30.035156 18.273438 -28.234375 19.015625 -25.390625 C 19.484375 -23.617188 19.320312 -21.894531 18.53125 -20.21875 C 17.738281 -18.539062 16.304688 -17.085938 14.234375 -15.859375 L 14.234375 -15.8125 C 14.753906 -15.75 15.316406 -15.554688 15.921875 -15.234375 C 16.523438 -14.910156 17.066406 -14.519531 17.546875 -14.0625 L 20.078125 -11.84375 C 21.304688 -10.695312 22.273438 -9.9375 22.984375 -9.5625 C 23.703125 -9.195312 24.488281 -9.117188 25.34375 -9.328125 L 26.015625 -6.765625 L 19.625 -5.09375 C 19.101562 -5.289062 18.546875 -5.617188 17.953125 -6.078125 C 17.359375 -6.546875 16.65625 -7.1875 15.84375 -8 L 11.78125 -11.90625 C 10.875 -12.769531 10.140625 -13.378906 9.578125 -13.734375 L 7.5625 -13.203125 L 8.640625 -9.046875 C 9.023438 -7.578125 9.273438 -6.394531 9.390625 -5.5 C 10.203125 -5.789062 11.285156 -6.113281 12.640625 -6.46875 L 13.421875 -3.484375 L 1.9375 -0.5 Z M 8.6875 -16.484375 C 10.800781 -17.035156 12.207031 -17.90625 12.90625 -19.09375 C 13.601562 -20.28125 13.691406 -21.875 13.171875 -23.875 C 12.617188 -26.019531 11.703125 -27.296875 10.421875 -27.703125 C 9.140625 -28.117188 7.84375 -28.15625 6.53125 -27.8125 C 5.625 -27.582031 5.015625 -27.21875 4.703125 -26.71875 C 4.390625 -26.21875 4.398438 -25.335938 4.734375 -24.078125 L 6.796875 -16.140625 C 7.597656 -16.253906 8.226562 -16.367188 8.6875 -16.484375 Z M 8.6875 -16.484375 "/></g></g></g><g fill="#000000" fill-opacity="1"><g transform="translate(239.146596, 317.168059)"><g><path d="M 0.5625 -3.265625 C 1.1875 -3.628906 1.628906 -3.957031 1.890625 -4.25 C 2.160156 -4.550781 2.273438 -4.960938 2.234375 -5.484375 C 2.203125 -6.015625 1.945312 -6.742188 1.46875 -7.671875 L -5.59375 -21.25 C -6.289062 -22.582031 -6.800781 -23.675781 -7.125 -24.53125 L -9.71875 -23.03125 L -11.140625 -25.765625 L 6.59375 -35 L 10.375 -28.21875 L 8.03125 -27 C 7.113281 -28.75 6.0625 -29.742188 4.875 -29.984375 C 3.695312 -30.222656 2.523438 -30.007812 1.359375 -29.34375 L 0.109375 -28.640625 C -0.441406 -28.316406 -0.847656 -28.003906 -1.109375 -27.703125 C -1.378906 -27.398438 -1.484375 -26.976562 -1.421875 -26.4375 C -1.367188 -25.894531 -1.113281 -25.1875 -0.65625 -24.3125 L 2.109375 -18.984375 L 6.25 -21.140625 C 6.03125 -21.535156 5.445312 -22.546875 4.5 -24.171875 L 7.234375 -25.59375 L 11.71875 -16.96875 L 9.375 -15.75 C 8.882812 -16.695312 8.375 -17.316406 7.84375 -17.609375 C 7.320312 -17.910156 6.789062 -18.003906 6.25 -17.890625 C 5.707031 -17.773438 5.054688 -17.5 4.296875 -17.0625 L 3.375 -16.546875 L 6.40625 -10.734375 C 7.070312 -9.453125 7.566406 -8.390625 7.890625 -7.546875 L 12.640625 -10.015625 C 13.847656 -10.640625 14.660156 -11.578125 15.078125 -12.828125 C 15.492188 -14.078125 15.238281 -15.585938 14.3125 -17.359375 L 16.625 -18.5625 L 20.515625 -10.671875 L 1.78125 -0.921875 Z M 0.5625 -3.265625 "/></g></g></g><g fill="#000000" fill-opacity="1"><g transform="translate(264.986038, 303.142214)"><g><path d="M -0.6875 -3.328125 L -3.109375 -25 C -3.347656 -27.125 -3.460938 -28.726562 -3.453125 -29.8125 L -3.484375 -29.84375 L -8.875 -25.640625 C -10.125 -24.671875 -10.789062 -23.523438 -10.875 -22.203125 C -10.957031 -20.878906 -10.335938 -19.421875 -9.015625 -17.828125 L -11.046875 -16.140625 L -16.28125 -22.875 L -0.609375 -35.859375 L 1.296875 -33.546875 L 3.546875 -12.765625 C 3.804688 -10.242188 3.929688 -8.300781 3.921875 -6.9375 L 3.953125 -6.90625 L 9.6875 -11.453125 C 10.914062 -12.429688 11.570312 -13.566406 11.65625 -14.859375 C 11.738281 -16.160156 11.113281 -17.613281 9.78125 -19.21875 L 11.8125 -20.90625 L 17.09375 -14.171875 L 1.234375 -1.015625 Z M -0.6875 -3.328125 "/></g></g></g></svg>